<svg width="24" height="25" viewBox="0 0 24 25" fill="none" xmlns="http://www.w3.org/2000/svg">
<path fill-rule="evenodd" clip-rule="evenodd" d="M10.6761 12.5268L10.6777 12.8713C10.6895 14.2374 10.7718 15.4563 10.9139 16.2287C10.9139 16.2426 11.0688 17.0087 11.1674 17.2636C11.3224 17.6322 11.6025 17.9451 11.9538 18.1433C12.235 18.2847 12.5299 18.3565 12.8387 18.3565C13.0814 18.3452 13.4817 18.2231 13.7674 18.1207L14.0048 18.0297C15.5774 17.405 18.5835 15.364 19.7347 14.1158L19.8196 14.0286L20.1984 13.6197C20.4372 13.3068 20.5634 12.9244 20.5634 12.5129C20.5634 12.1444 20.451 11.7757 20.226 11.4779C20.1587 11.3814 20.0502 11.2576 19.9537 11.153L19.5849 10.7671C18.3161 9.48149 15.5689 7.67824 14.1449 7.08075C14.1449 7.0679 13.26 6.69825 12.8387 6.68433H12.7825C12.1362 6.68433 11.5325 7.05289 11.2237 7.64861C11.1393 7.81147 11.0584 8.13049 10.9969 8.41067L10.8862 8.93969C10.76 9.79041 10.6761 11.0954 10.6761 12.5268ZM4.51736 11.0436C3.70987 11.0436 3.05518 11.7046 3.05518 12.52C3.05518 13.3353 3.70987 13.9965 4.51736 13.9965L8.11553 13.6782C8.74901 13.6782 9.26257 13.1607 9.26257 12.52C9.26257 11.8803 8.74901 11.3618 8.11553 11.3618L4.51736 11.0436Z" fill="white"/>
</svg>
