<svg width="40" height="40" viewBox="0 0 40 40" fill="none" xmlns="http://www.w3.org/2000/svg">
<path fill-rule="evenodd" clip-rule="evenodd" d="M0.858826 20.2038C0.858826 9.46628 9.59043 0.738892 20.3125 0.738892C31.0345 0.738892 39.7661 9.46628 39.7661 20.2038C39.7661 30.9187 31.0345 39.6461 20.3125 39.6461C9.59043 39.6461 0.858826 30.9187 0.858826 20.2038ZM27.448 22.1725C27.6544 21.9661 27.9175 21.6471 27.9737 21.572C28.2742 21.1778 28.4244 20.6899 28.4244 20.2038C28.4244 19.6575 28.2554 19.1508 27.9361 18.738C27.9101 18.7117 27.8587 18.6561 27.792 18.5833C27.6671 18.4475 27.4879 18.2522 27.3165 18.081C25.7768 16.4294 21.7582 13.7267 19.6553 12.9009C19.3361 12.7714 18.5286 12.488 18.0967 12.4693C17.6835 12.4693 17.2892 12.5631 16.9137 12.7508C16.4443 13.0135 16.0687 13.4265 15.8622 13.9144C15.7307 14.2523 15.5242 15.2658 15.5242 15.2845C15.3176 16.3919 15.2049 18.1937 15.2049 20.1832C15.2049 22.0807 15.3176 23.8054 15.4866 24.9316C15.4912 24.9363 15.5074 25.0168 15.5325 25.1419C15.6088 25.5222 15.7677 26.3148 15.9373 26.6395C16.3504 27.4277 17.1579 27.9158 18.0216 27.9158H18.0967C18.6601 27.8969 19.843 27.409 19.843 27.3904C21.8335 26.5644 25.7579 23.9932 27.3352 22.2851L27.448 22.1725Z" fill="#FF2626"/>
</svg>
