<svg width="40" height="40" viewBox="0 0 40 40" fill="none" xmlns="http://www.w3.org/2000/svg">
<rect x="0.43869" y="0.798218" width="38.9072" height="38.9072" rx="19.4536" fill="#171717"/>
<g clip-path="url(#clip0_1_8664)">
<path fill-rule="evenodd" clip-rule="evenodd" d="M16.1811 27.3673C16.4408 27.3673 16.6504 27.5778 16.6504 27.8366C16.6504 28.0962 16.4408 28.3067 16.1811 28.3067C15.9215 28.3067 15.7118 28.0962 15.7118 27.8366C15.7118 27.5778 15.9215 27.3673 16.1811 27.3673Z" fill="white"/>
<path fill-rule="evenodd" clip-rule="evenodd" d="M25.9116 27.3673C26.1712 27.3673 26.3817 27.5778 26.3817 27.8366C26.3817 28.0962 26.1712 28.3067 25.9116 28.3067C25.6519 28.3067 25.4423 28.0962 25.4423 27.8366C25.4423 27.5778 25.6519 27.3673 25.9116 27.3673Z" fill="white"/>
<path d="M12.3819 12.7438L14.1761 13.0543L15.0068 22.9511C15.0732 23.7593 15.7486 24.3796 16.5595 24.377H25.9697C26.7435 24.3787 27.3999 23.8094 27.5095 23.0434L28.3281 17.3863C28.4195 16.7541 27.9805 16.1675 27.349 16.076C27.2938 16.0683 14.4642 16.064 14.4642 16.064M22.1941 19.2521H24.5861M16.1811 27.3673C16.4408 27.3673 16.6504 27.5778 16.6504 27.8366C16.6504 28.0962 16.4408 28.3067 16.1811 28.3067C15.9215 28.3067 15.7118 28.0962 15.7118 27.8366C15.7118 27.5778 15.9215 27.3673 16.1811 27.3673ZM25.9116 27.3673C26.1712 27.3673 26.3817 27.5778 26.3817 27.8366C26.3817 28.0962 26.1712 28.3067 25.9116 28.3067C25.6519 28.3067 25.4423 28.0962 25.4423 27.8366C25.4423 27.5778 25.6519 27.3673 25.9116 27.3673Z" stroke="white" stroke-width="1.45902" stroke-linecap="round" stroke-linejoin="round"/>
</g>
<defs>
<clipPath id="clip0_1_8664">
<rect width="19.4536" height="19.4536" fill="white" transform="translate(10.1633 10.5253)"/>
</clipPath>
</defs>
</svg>
