<svg width="125" height="126" viewBox="0 0 125 126" fill="none" xmlns="http://www.w3.org/2000/svg">
<rect x="0.0780029" y="0.784569" width="124.503" height="124.503" rx="62.2516" fill="#FFE6E6"/>
<path d="M6.88678 109.608L20.6089 109.552L34.3309 109.531L61.7725 109.491L89.214 109.531L102.936 109.55L116.658 109.608L102.936 109.664L89.214 109.685L61.7725 109.725L34.3309 109.685L20.6089 109.664L6.88678 109.608Z" fill="#263238"/>
<path d="M104.036 85.2188C104.237 86.4602 104.164 87.7243 103.823 88.9412C103.662 89.5053 103.447 90.0561 103.181 90.5876C102.846 91.2671 102.499 91.9327 102.581 92.6776C102.662 92.7267 102.386 92.7197 102.375 92.6473C100.13 91.5123 97.2539 91.3045 95.5327 89.4503C94.7142 88.5723 94.3036 87.4607 94.1063 86.3468C93.8931 85.1348 93.8431 83.792 94.1878 82.5987C94.4852 81.5875 95.1511 80.6137 96.2196 80.1187C97.2881 79.6236 98.7698 79.6516 99.933 79.9715C102.433 80.6604 103.681 83.0657 104.036 85.2188Z" fill="#FF2626"/>
<path d="M105.196 99.9612C104.889 99.0552 104.583 98.1491 104.267 97.2454C103.652 95.4752 103.012 93.7121 102.304 91.97C101.88 90.9254 101.431 89.8909 100.959 88.8665C101.011 88.2216 101.099 87.5793 101.223 86.9422C101.412 86.1693 101.683 85.4243 101.938 84.6677C101.952 84.6233 101.867 84.5976 101.846 84.642C101.344 85.6835 100.686 87.0146 100.67 88.2476C100.12 87.08 99.5355 85.9474 98.9039 84.8218C98.8334 83.87 98.8669 82.9143 99.0039 81.9681C99.0039 81.9238 98.9355 81.9121 98.9276 81.9541C98.736 82.7826 98.6626 83.6291 98.7092 84.4739C98.2249 83.6285 97.717 82.7948 97.1775 81.9705C97.1275 81.8981 97.0117 81.9705 97.0538 82.0452C97.8986 83.4884 98.6802 84.9596 99.4224 86.4495C98.3898 85.6538 97.1955 85.0404 95.9037 84.642C95.8484 84.6233 95.8063 84.6957 95.8616 84.7167C97.2728 85.2574 98.5628 86.0192 99.6698 86.9656C100.196 88.0554 100.699 89.1553 101.178 90.2653C99.7724 89.044 97.8512 88.2406 95.9932 87.8086C95.93 87.7946 95.9116 87.881 95.9721 87.8973C98.1249 88.4718 99.7961 89.553 101.433 90.8538C101.623 91.3021 101.809 91.7528 101.991 92.2012C102.686 93.9083 103.341 95.627 103.973 97.3528C104.273 98.1818 104.57 99.0085 104.862 99.8398C105.178 100.732 105.423 101.675 105.831 102.539C105.87 102.621 106.036 102.602 106.015 102.502C105.791 101.643 105.518 100.795 105.196 99.9612Z" fill="#263238"/>
<path d="M101.465 83.4744C101.065 84.0177 100.791 84.6256 100.657 85.2632C100.657 85.2669 100.658 85.2705 100.661 85.2731C100.664 85.2758 100.668 85.2772 100.672 85.2772C100.677 85.2772 100.681 85.2758 100.684 85.2731C100.687 85.2705 100.688 85.2669 100.688 85.2632C100.939 84.6631 101.232 84.0774 101.565 83.5095C101.599 83.4627 101.512 83.423 101.465 83.4744Z" fill="#263238"/>
<path d="M97.4591 87.6242C96.8344 87.3172 96.1523 87.1131 95.4458 87.0217C95.4274 87.0217 95.4168 87.045 95.4458 87.052C95.7695 87.1711 96.109 87.2529 96.438 87.365C96.7669 87.4771 97.088 87.6148 97.4196 87.7176C97.4325 87.7189 97.4455 87.7164 97.4565 87.7104C97.4676 87.7044 97.476 87.6954 97.4806 87.6846C97.4851 87.6738 97.4855 87.6621 97.4816 87.6511C97.4777 87.6401 97.4698 87.6307 97.4591 87.6242Z" fill="#263238"/>
<path d="M96.3326 82.6313C96.1297 82.4956 95.913 82.3768 95.6854 82.2765C95.678 82.2745 95.67 82.2747 95.6627 82.2771C95.6554 82.2794 95.6491 82.2837 95.6447 82.2894C95.6403 82.2951 95.6381 82.3019 95.6383 82.3088C95.6385 82.3157 95.6412 82.3224 95.646 82.3278C95.8451 82.4682 96.0592 82.5909 96.2853 82.6943C96.3274 82.7177 96.3721 82.657 96.3326 82.6313Z" fill="#263238"/>
<path d="M111.602 91.9817C109.986 92.4091 108.36 92.8014 106.744 93.2241C106.604 93.2591 103.873 88.6143 104.86 86.2183C105.33 85.1334 106.068 84.1553 107.018 83.3553C107.969 82.5554 109.109 81.9539 110.355 81.5946C111.507 81.2466 112.926 80.9524 114.147 81.1929C115.231 81.4054 115.989 82.1924 116.35 83.0961C116.829 84.3268 116.668 85.7933 116.408 87.0497C116.203 88.2273 115.659 89.3381 114.829 90.2747C113.958 91.1808 112.863 91.6501 111.602 91.9817Z" fill="#FF2626"/>
<path d="M113.947 87.5657C112.925 88.0092 111.865 88.3794 110.776 88.6726C110.054 88.8468 109.349 89.0749 108.67 89.3545C109.355 88.0024 110.102 86.6807 110.897 85.3706C111.95 85.102 113.042 84.684 113.829 84.0278C113.838 84.021 113.843 84.0113 113.844 84.0008C113.845 83.9903 113.842 83.9798 113.834 83.9718C113.826 83.9637 113.815 83.9587 113.803 83.9578C113.792 83.957 113.78 83.9603 113.771 83.9671C112.908 84.5089 111.958 84.8312 111.005 85.1978C111.221 84.8452 111.436 84.4972 111.657 84.1423C111.721 84.0442 111.568 83.9461 111.494 84.0418C110.644 85.1367 109.877 86.2803 109.197 87.4653C109.023 86.4275 108.968 85.3768 109.031 84.3291C109.031 84.3235 109.028 84.3182 109.024 84.3142C109.02 84.3103 109.014 84.3081 109.007 84.3081C109.001 84.3081 108.995 84.3103 108.991 84.3142C108.986 84.3182 108.984 84.3235 108.984 84.3291C108.782 85.4721 108.796 86.6368 109.023 87.7759C108.457 88.7801 107.941 89.8076 107.476 90.8491C107.291 90.2232 107.052 89.6091 106.891 88.9809C106.648 88.077 106.569 87.1442 106.66 86.2183C106.66 86.1926 106.618 86.1903 106.612 86.2183C106.327 87.931 106.561 89.6802 107.291 91.2858C107.028 91.914 106.765 92.5421 106.528 93.1727C105.309 96.3888 104.587 99.737 104.383 103.126C104.386 103.139 104.395 103.152 104.407 103.161C104.419 103.17 104.435 103.174 104.45 103.174C104.466 103.174 104.482 103.17 104.494 103.161C104.506 103.152 104.514 103.139 104.517 103.126C104.941 99.7825 105.749 96.4866 106.928 93.2894C107.397 92.0401 107.936 90.8257 108.528 89.6348C109.484 89.3826 110.434 89.0439 111.373 88.7544C112.311 88.5056 113.196 88.1205 113.992 87.6148C114.013 87.5938 113.979 87.5517 113.947 87.5657Z" fill="#263238"/>
<path d="M115.46 86.216C114.474 86.5289 113.537 86.9656 112.547 87.2808C112.502 87.2972 112.529 87.3626 112.576 87.3532C113.629 87.1617 114.658 86.8745 115.5 86.2673C115.524 86.244 115.487 86.2066 115.46 86.216Z" fill="#263238"/>
<path d="M107.381 84.3244C107.381 84.2777 107.315 84.2497 107.299 84.2987C107.036 85.1067 106.841 85.9661 107.105 86.7928C107.105 86.8231 107.173 86.8255 107.176 86.7928C107.223 85.9544 107.17 85.1441 107.381 84.3244Z" fill="#263238"/>
<path d="M111.465 82.4562C111.15 82.8578 110.998 83.3432 111.036 83.8317C111.036 83.8621 111.094 83.8807 111.102 83.8434C111.223 83.3763 111.426 82.9583 111.584 82.5099C111.587 82.4967 111.586 82.4828 111.579 82.4704C111.573 82.458 111.562 82.448 111.548 82.4418C111.535 82.4356 111.519 82.4336 111.504 82.4362C111.489 82.4389 111.475 82.4459 111.465 82.4562Z" fill="#263238"/>
<path d="M92.3746 94.0321C92.8483 95.3679 93.9747 97.2127 95.7564 97.2267C96.9144 97.2267 98.0776 97.1146 99.2356 97.1006C100.478 97.082 101.72 97.0866 102.96 97.152C103.062 97.152 102.812 93.8546 99.8278 92.248C98.9935 91.7973 97.9697 91.6548 97.0223 91.4727C95.9373 91.2448 94.8235 91.1428 93.7089 91.1691C93.022 91.1924 92.4535 91.3209 92.2088 91.9444C91.964 92.5679 92.1456 93.3969 92.3746 94.0321Z" fill="#FF2626"/>
<path d="M93.6561 92.3624C94.3825 92.5282 95.1142 92.7174 95.8405 92.9229C95.6511 92.74 95.4508 92.5661 95.2405 92.4021C94.9273 92.1686 94.5825 91.9864 94.2483 91.7856C94.2193 91.7693 94.2483 91.7202 94.272 91.7342C94.9776 91.994 95.5874 92.4235 96.0326 92.9743C96.938 93.2358 97.8354 93.5207 98.7013 93.836C99.298 94.0533 99.8699 94.3207 100.409 94.6346C100.236 94.3002 100.029 93.9805 99.7908 93.6795C99.3961 93.2241 98.8592 92.9789 98.3407 92.6473C98.3332 92.6407 98.3283 92.632 98.327 92.6227C98.3256 92.6133 98.3279 92.6038 98.3333 92.5958C98.3388 92.5877 98.3472 92.5815 98.3571 92.5781C98.367 92.5748 98.3779 92.5745 98.3881 92.5773C98.9301 92.7864 99.417 93.0936 99.8176 93.4792C100.218 93.8648 100.524 94.3204 100.715 94.8168C101.336 95.2115 101.903 95.6683 102.407 96.1782C104.378 98.1679 105.933 100.814 105.939 103.516C105.939 103.579 105.823 103.597 105.81 103.53C105.3 100.882 103.997 98.4054 102.038 96.358C101.896 96.2101 101.751 96.07 101.604 95.9377C101.063 95.8726 100.518 95.8367 99.9724 95.8303C99.3382 95.8303 98.7092 95.912 98.0749 95.9587C97.0222 96.0334 95.8826 96.0451 94.9431 95.5804C94.9036 95.5594 94.9299 95.494 94.9773 95.5103C97.0827 96.1852 99.2671 95.3282 101.365 95.7439C100.472 94.9844 99.4241 94.3829 98.2775 93.9714L98.0854 93.9037C96.7432 94.0461 95.3247 94.3567 94.0141 93.9691C94.006 93.9669 93.9993 93.962 93.9954 93.9554C93.9914 93.9489 93.9906 93.9412 93.993 93.934C93.9955 93.9269 94.001 93.9209 94.0084 93.9174C94.0158 93.9139 94.0245 93.9132 94.0325 93.9154C95.2957 94.1956 96.509 93.843 97.7565 93.7869C96.3985 93.3199 95.0141 92.9439 93.6509 92.4768C93.5351 92.4278 93.5325 92.3367 93.6561 92.3624Z" fill="#263238"/>
<path d="M93.0642 93.5345C93.7126 93.6115 94.3655 93.6559 95.0196 93.6676C95.0354 93.6676 95.0406 93.6887 95.0196 93.691C94.3613 93.7989 93.6831 93.7604 93.0457 93.5789C93.0194 93.5719 93.0326 93.5299 93.0642 93.5345Z" fill="#263238"/>
<path d="M97.4802 92.3903C97.842 92.5344 98.1703 92.737 98.4483 92.9879C98.4825 93.0159 98.4483 93.0696 98.401 93.0439C98.2352 92.9388 98.0669 92.8385 97.8959 92.7404C97.733 92.661 97.5757 92.573 97.4249 92.4766C97.4158 92.4687 97.4099 92.4583 97.4081 92.4471C97.4063 92.4359 97.4088 92.4244 97.4151 92.4146C97.4214 92.4047 97.4312 92.397 97.443 92.3926C97.4547 92.3882 97.4678 92.3874 97.4802 92.3903Z" fill="#263238"/>
<path d="M108.012 96.6872C107.991 96.7316 108.062 96.7736 108.089 96.7269C108.1 96.7409 108.117 96.7508 108.136 96.755C109.336 97.0067 110.551 97.1938 111.776 97.3154C112.76 97.3925 113.897 97.4415 114.76 96.9348C115.932 96.2459 116.7 94.4057 116.076 93.2357C115.329 91.8486 113.073 92.6029 111.942 93.0956C110.2 93.8496 108.81 95.1201 108.012 96.6872Z" fill="#FF2626"/>
<path d="M107.139 97.3293C107.797 96.7656 108.527 96.2726 109.315 95.8604C109.881 95.0628 110.633 94.3827 111.521 93.8661C111.563 93.8381 111.6 93.8988 111.56 93.9269C110.855 94.4273 110.229 95.0111 109.702 95.6619C110.58 95.2348 111.492 94.8664 112.431 94.5597C112.766 94.0075 113.276 93.5545 113.897 93.2566C113.91 93.2566 113.926 93.2566 113.913 93.273C113.403 93.6191 112.959 94.0354 112.597 94.506C113.15 94.3238 113.71 94.151 114.271 93.9876C114.321 93.9736 114.339 94.0413 114.292 94.0576C113.297 94.4032 112.276 94.7582 111.289 95.1879C112.494 95.3572 113.721 95.3572 114.926 95.1879C114.96 95.1879 114.974 95.2253 114.939 95.2323C113.683 95.5631 112.348 95.5809 111.081 95.2836C110.452 95.5554 109.841 95.8595 109.252 96.1944C109.748 96.1571 110.248 96.1934 110.731 96.3018C111.584 96.4774 112.456 96.5651 113.331 96.5634C113.363 96.5634 113.371 96.6101 113.331 96.6147C111.823 96.8483 110.397 96.2364 108.902 96.3952C107.245 97.3864 105.922 98.7586 105.076 100.365C104.447 101.502 104.104 102.7 103.596 103.88C103.593 103.891 103.585 103.9 103.574 103.905C103.563 103.911 103.549 103.912 103.537 103.909C103.525 103.906 103.515 103.899 103.509 103.889C103.502 103.879 103.501 103.867 103.504 103.856C103.939 101.533 105.239 98.9803 107.139 97.3293Z" fill="#263238"/>
<path d="M111.687 94.1556C111.786 93.9976 111.917 93.8568 112.073 93.7401C112.2 93.618 112.351 93.5175 112.518 93.4436C112.534 93.4436 112.542 93.4576 112.534 93.467C112.41 93.5907 112.236 93.6817 112.102 93.8008C111.968 93.9199 111.858 94.0623 111.721 94.179C111.717 94.183 111.712 94.1856 111.706 94.1863C111.701 94.187 111.695 94.1856 111.691 94.1825C111.686 94.1794 111.683 94.1748 111.682 94.1698C111.682 94.1648 111.683 94.1597 111.687 94.1556Z" fill="#263238"/>
<path d="M114.174 94.8749C114.397 94.8235 114.634 94.8282 114.86 94.7862C115.086 94.7377 115.309 94.6784 115.528 94.6087C115.557 94.6087 115.573 94.6391 115.549 94.6531C115.138 94.8781 114.655 94.9773 114.174 94.9356C114.167 94.9331 114.161 94.929 114.157 94.9235C114.153 94.9181 114.15 94.9118 114.15 94.9052C114.15 94.8987 114.153 94.8923 114.157 94.8869C114.161 94.8815 114.167 94.8773 114.174 94.8749Z" fill="#263238"/>
<path d="M100.925 100.996L101.123 102.99L101.794 109.725H107.739L108.578 102.99L108.826 100.996H100.925Z" fill="#37474F"/>
<path d="M100.925 100.996L101.123 102.99H108.578L108.826 100.996H100.925Z" fill="#263238"/>
<path d="M100.338 102.07H109.415V100.452H100.338V102.07Z" fill="#37474F"/>
<path d="M35.1757 34.3754C40.6742 34.3754 45.1317 30.4202 45.1317 25.5412C45.1317 20.6621 40.6742 16.7069 35.1757 16.7069C29.6771 16.7069 25.2197 20.6621 25.2197 25.5412C25.2197 30.4202 29.6771 34.3754 35.1757 34.3754Z" fill="#FF2626"/>
<path opacity="0.1" d="M36.7846 34.1053C41.993 33.5411 45.6999 29.3372 45.064 24.7156C44.4282 20.094 39.6905 16.8049 34.4821 17.369C29.2736 17.9332 25.5668 22.1371 26.2026 26.7587C26.8384 31.3803 31.5762 34.6695 36.7846 34.1053Z" fill="black"/>
<path d="M36.1878 33.623C41.094 33.3507 44.8223 29.6008 44.5154 25.2475C44.2084 20.8941 39.9824 17.5858 35.0763 17.8582C30.1702 18.1306 26.4418 21.8804 26.7488 26.2338C27.0557 30.5871 31.2817 33.8954 36.1878 33.623Z" fill="white"/>
<path opacity="0.5" d="M44.3315 24.0631C40.2786 26.2419 33.6176 29.8172 29.8936 31.7695C28.8413 30.9815 28.009 29.988 27.4619 28.8668L39.7759 18.7411C40.9269 19.2795 41.9311 20.035 42.7181 20.9544C43.5051 21.8737 44.0558 22.9348 44.3315 24.0631Z" fill="#EBEBEB"/>
<path opacity="0.5" d="M44.5264 26.0154C44.4943 26.895 44.295 27.7635 43.9369 28.5842L32.8387 33.2406C32.3544 33.0991 31.8851 32.9201 31.436 32.7059C34.7889 30.9848 40.9157 27.8579 44.5264 26.0154Z" fill="#EBEBEB"/>
<path d="M35.7176 18.4141H35.5466V19.6116H35.7176V18.4141Z" fill="#263238"/>
<path d="M31.5789 19.3571L31.4308 19.433L32.1057 20.4701L32.2538 20.3943L31.5789 19.3571Z" fill="#263238"/>
<path d="M28.524 22.009L28.4385 22.1404L29.6073 22.7392L29.6928 22.6078L28.524 22.009Z" fill="#263238"/>
<path d="M28.7274 25.6627H27.3778V25.8145H28.7274V25.6627Z" fill="#263238"/>
<path d="M29.6106 28.7378L28.4418 29.3366L28.5273 29.468L29.6962 28.8693L29.6106 28.7378Z" fill="#263238"/>
<path d="M32.1071 31.0083L31.4329 32.0458L31.581 32.1216L32.2552 31.0841L32.1071 31.0083Z" fill="#263238"/>
<path d="M35.7176 31.8651H35.5466V33.0627H35.7176V31.8651Z" fill="#263238"/>
<path d="M39.1589 31.0071L39.0108 31.0829L39.6856 32.1201L39.8337 32.0442L39.1589 31.0071Z" fill="#263238"/>
<path d="M41.6518 28.7351L41.5663 28.8665L42.7351 29.4653L42.8206 29.3339L41.6518 28.7351Z" fill="#263238"/>
<path d="M43.8864 25.6627H42.5367V25.8145H43.8864V25.6627Z" fill="#263238"/>
<path d="M42.7371 22.0143L41.5683 22.6131L41.6538 22.7445L42.8226 22.1457L42.7371 22.0143Z" fill="#263238"/>
<path d="M39.683 19.3564L39.0088 20.3938L39.1569 20.4696L39.8311 19.4322L39.683 19.3564Z" fill="#263238"/>
<path d="M42.2052 29.2029L34.902 25.8004L35.3284 25.1536L42.321 29.0278L42.2052 29.2029Z" fill="#FF2626"/>
<path d="M35.5572 31.0618L35.1914 25.2307L36.0362 25.2423L35.7862 31.0641L35.5572 31.0618Z" fill="#455A64"/>
<path d="M35.9203 25.7397C35.9203 25.7906 35.9032 25.8403 35.8713 25.8826C35.8394 25.9249 35.7941 25.9578 35.741 25.9771C35.688 25.9965 35.6297 26.0015 35.5735 25.9914C35.5173 25.9813 35.4657 25.9566 35.4253 25.9204C35.385 25.8843 35.3576 25.8383 35.3468 25.7883C35.3359 25.7384 35.342 25.6867 35.3643 25.6398C35.3866 25.5929 35.4241 25.553 35.472 25.525C35.52 25.4971 35.5762 25.4824 35.6335 25.4829C35.6714 25.4829 35.7089 25.4896 35.7439 25.5025C35.7788 25.5154 35.8106 25.5344 35.8372 25.5582C35.8639 25.5821 35.885 25.6105 35.8992 25.6416C35.9135 25.6727 35.9206 25.7061 35.9203 25.7397Z" fill="#263238"/>
<path d="M116.508 58.2301H75.2527V62.0996H116.508V58.2301Z" fill="#455A64"/>
<path d="M115.777 62.0996H75.987V63.356H115.777V62.0996Z" fill="#455A64"/>
<path d="M115.777 62.0996H75.987V62.5153H115.777V62.0996Z" fill="#263238"/>
<path d="M76.2737 109.725H75.1026L78.5107 63.356H81.4952L76.2737 109.725Z" fill="#455A64"/>
<path d="M81.4952 63.3583L81.1451 66.4595H78.2818L78.5107 63.3583H81.4952Z" fill="#263238"/>
<path d="M115.487 109.725H116.658L113.253 63.356H110.266L115.487 109.725Z" fill="#455A64"/>
<path d="M110.266 63.3583L110.616 66.4595H113.479L113.253 63.3583H110.266Z" fill="#263238"/>
<path d="M84.69 57.6463L80.5239 57.6521L80.525 58.2289L84.6911 58.2231L84.69 57.6463Z" fill="#DBDBDB"/>
<path d="M84.6872 57.6487L80.5211 57.6545L80.5218 58.0352L84.6879 58.0294L84.6872 57.6487Z" fill="#C7C7C7"/>
<path d="M75.5737 56.1074C75.8287 56.4387 76.1853 56.6983 76.6013 56.8556C77.0173 57.0128 77.4753 57.0611 77.9213 56.9948C78.0662 56.9706 78.2081 56.9338 78.345 56.885C78.5528 56.8136 78.7506 56.7212 78.9345 56.6095L78.4081 55.9089C78.3092 55.9692 78.2044 56.0216 78.095 56.0654C77.7919 56.1901 77.4481 56.2132 77.1273 56.1304C76.8065 56.0475 76.5304 55.8643 76.3501 55.6147C75.779 54.9024 75.5606 53.2794 76.1474 52.6489C76.1869 52.6045 76.3527 52.5298 77.0238 52.6489C77.1501 52.6746 77.287 52.7003 77.4475 52.74C77.5714 52.7764 77.6993 52.8007 77.8291 52.8124L77.8449 52.3944L77.8923 51.9763C77.8248 51.9639 77.758 51.9483 77.6923 51.9296C77.3818 51.8509 77.0651 51.7932 76.7449 51.7568C76.2501 51.7125 75.7316 51.7568 75.4158 52.1118C74.4736 53.1486 74.8579 55.206 75.5737 56.1074Z" fill="#DBDBDB"/>
<path d="M78.4026 55.9065C78.3037 55.9668 78.199 56.0192 78.0896 56.0629L78.3526 56.8753C78.5604 56.8039 78.7581 56.7115 78.9419 56.5998L78.4026 55.9065Z" fill="#C7C7C7"/>
<path d="M76.7397 51.7709L77.0186 52.6627C77.1449 52.6883 77.2817 52.714 77.4422 52.7537C77.566 52.7901 77.6939 52.8144 77.8237 52.8261L77.8394 52.4082L77.8868 51.9903C77.8193 51.9779 77.7525 51.9623 77.6869 51.9437C77.3765 51.865 77.0599 51.8072 76.7397 51.7709Z" fill="#C7C7C7"/>
<path d="M88.1378 50.6662C88.1378 50.6662 87.6431 54.433 86.7746 56.0233C85.9061 57.6136 84.7086 57.7864 83.9612 57.7887H81.2478C80.4978 57.7887 79.2924 57.6159 78.4266 56.0326C77.5607 54.4493 77.0528 50.6779 77.0528 50.6779L88.1378 50.6662Z" fill="#DBDBDB"/>
<path d="M116.358 58.2302H90.7195L91.5512 54.7624H106.779V50.4912H114.5L116.358 58.2302Z" fill="#FF2626"/>
<path d="M118.306 34.6721H89.917L89.4854 33.0328H118.735L118.306 34.6721Z" fill="#FF2626"/>
<path d="M106.779 34.6721L104.671 41.6942L103.455 43.058H94.1593L92.946 41.6942L90.838 34.6721H106.779Z" fill="#FF2626"/>
<path d="M106.779 34.6721L104.671 41.6942L103.455 43.058H94.1593L92.946 41.6942L90.838 34.6721H106.779Z" fill="#FF2626"/>
<path opacity="0.3" d="M104.671 41.6942L103.455 43.058H94.1592L92.946 41.6942H104.671Z" fill="white"/>
<path opacity="0.2" d="M95.6462 41.6942H94.2646L93.2171 34.6721H94.9541L95.6462 41.6942Z" fill="white"/>
<path opacity="0.2" d="M96.5122 43.058H95.1306L94.2647 41.6942H95.6464L96.5122 43.058Z" fill="white"/>
<path opacity="0.2" d="M96.6728 41.6942H96.3149L95.6464 34.6721H95.9806L96.6728 41.6942Z" fill="white"/>
<path opacity="0.2" d="M97.5384 43.058H97.1805L96.3146 41.6942H96.6725L97.5384 43.058Z" fill="white"/>
<path opacity="0.3" d="M109.332 52.3102H112.366L113.35 56.4086H109.332V52.3102Z" fill="white"/>
<path d="M111.95 54.3606C111.95 54.5194 111.896 54.6745 111.796 54.8063C111.696 54.9381 111.555 55.0407 111.389 55.1011C111.224 55.1616 111.042 55.1771 110.866 55.1459C110.691 55.1146 110.53 55.0379 110.404 54.9255C110.277 54.813 110.191 54.6699 110.157 54.5141C110.122 54.3584 110.14 54.197 110.209 54.0503C110.277 53.9037 110.393 53.7783 110.542 53.6902C110.691 53.602 110.866 53.5549 111.045 53.5549C111.164 53.5549 111.282 53.5758 111.392 53.6163C111.502 53.6568 111.602 53.7162 111.686 53.7911C111.77 53.8659 111.837 53.9547 111.882 54.0525C111.927 54.1502 111.95 54.2549 111.95 54.3606Z" fill="#263238"/>
<path d="M106.779 50.4911V34.6721H117.361L114.5 50.4911H106.779Z" fill="#FF2626"/>
<path opacity="0.3" d="M109.332 46.4512V37.3857H113.579L111.942 46.4512H109.332Z" fill="white"/>
<path d="M112.448 38.4903H110.34V38.8663H112.448V38.4903Z" fill="#263238"/>
<path d="M111.884 41.7643H110.34V42.1403H111.884V41.7643Z" fill="#263238"/>
<path d="M111.26 45.0406H110.34V45.4165H111.26V45.0406Z" fill="#263238"/>
<path opacity="0.1" d="M90.838 34.6721H117.361L117.164 35.7534L90.9854 35.1672L90.838 34.6721Z" fill="black"/>
<path opacity="0.1" d="M106.779 50.4911H114.5L114.642 51.0819L106.779 51.5746V50.4911Z" fill="black"/>
<path d="M103.723 45.3792V45.7225H95.0594V45.3792L95.9831 44.6436H102.797L103.723 45.3792Z" fill="#455A64"/>
<path d="M103.723 45.3793H95.0594V45.7226H103.723V45.3793Z" fill="#37474F"/>
<path d="M95.0593 47.0326H92.3617C92.3617 47.0326 90.2563 48.7397 90.2563 50.5518V53.5339H92.2328V54.7553H88.922V50.4911C88.922 47.2918 92.1406 45.7225 92.1406 45.7225H95.0593V47.0326Z" fill="#37474F"/>
<path opacity="0.7" d="M106.539 51.3528V54.7623H92.2408V51.3528C92.2408 49.2277 95.0594 47.0396 95.0594 47.0396V45.7225H104.584L103.723 46.5772V47.0443C103.723 47.0443 106.539 49.2277 106.539 51.3528Z" fill="#EBEBEB"/>
<path d="M105.905 51.3645V54.4704H92.8777V51.3645C92.8768 51.2007 92.8944 51.0372 92.9303 50.8765H105.852C105.888 51.0372 105.906 51.2007 105.905 51.3645Z" fill="#FF2626"/>
<path opacity="0.6" d="M105.905 51.3645V54.4704H92.8777V51.3645C92.8768 51.2007 92.8944 51.0372 92.9303 50.8765H105.852C105.888 51.0372 105.906 51.2007 105.905 51.3645Z" fill="black"/>
<path d="M106.539 53.5549H92.2408V54.7599H106.539V53.5549Z" fill="#C7C7C7"/>
<path opacity="0.2" d="M95.3907 53.5549H94.2647V54.7595H95.3907V53.5549Z" fill="white"/>
<path opacity="0.2" d="M96.4146 53.5549H95.9016V54.7595H96.4146V53.5549Z" fill="white"/>
<path opacity="0.2" d="M94.2645 53.5549H95.3909V51.0329C95.3909 49.0829 97.7595 47.063 97.7595 47.063V45.7319H96.8568V47.0326C96.8568 47.0326 94.2619 49.3025 94.2619 50.9535L94.2645 53.5549Z" fill="white"/>
<path opacity="0.2" d="M95.9016 53.5549H96.4148V51.0329C96.4148 49.0829 98.7834 47.063 98.7834 47.063V45.7319H98.4939V47.0326C98.4939 47.0326 95.899 49.3025 95.899 50.9535L95.9016 53.5549Z" fill="white"/>
<path d="M37.4759 96.4956L19.1482 109.608H20.1825L41.3472 96.4956H37.4759Z" fill="#C7C7C7"/>
<path d="M39.1972 96.4955L30.1412 109.608H31.1755L42.2737 96.4955H39.1972Z" fill="#C7C7C7"/>
<path d="M43.6369 96.4955L52.6928 109.608H51.6612L40.563 96.4955H43.6369Z" fill="#C7C7C7"/>
<path d="M45.2213 96.4955L63.549 109.608H62.5148L41.3474 96.4955H45.2213Z" fill="#C7C7C7"/>
<path d="M75.8077 91.6849V87.8481L50.6401 86.9327L37.347 55.4371H6.88678L17.6639 91.6849L43.4132 98.0975H45.0265L75.8077 91.6849Z" fill="#FF2626"/>
<path opacity="0.1" d="M6.88678 55.4371H10.3713L21.601 88.4786L44.3817 94.2047L75.8077 87.8481V91.6849L45.0265 98.0975H43.4132L17.6639 91.6849L6.88678 55.4371Z" fill="black"/>
<path d="M96.5963 109.477C95.7857 109.494 74.7236 103.716 74.0788 103.046C74.0077 102.971 74.342 100.204 74.8815 98.0088C74.9078 97.9037 67.402 89.1769 67.402 89.1769L80.9846 84.4947L87.4745 96.4278L89.1431 99.5314C89.1431 99.5314 96.1699 105.799 96.791 106.603C97.4121 107.406 97.4095 109.461 96.5963 109.477Z" fill="#EBEBEB"/>
<path d="M97.1908 109.582C96.3434 109.601 74.3549 103.646 73.6785 102.948C73.4154 102.686 73.8128 101.479 74.8813 98.0087L89.2955 99.5477C89.2955 99.5477 96.7355 105.748 97.3856 106.584C98.0356 107.42 98.0356 109.561 97.1908 109.582Z" fill="#FF2626"/>
<path opacity="0.2" d="M97.1908 109.582C96.3434 109.601 74.3549 103.646 73.6785 102.948C73.4154 102.686 73.8128 101.479 74.8813 98.0087L89.2955 99.5477C89.2955 99.5477 96.7355 105.748 97.3856 106.584C98.0356 107.42 98.0356 109.561 97.1908 109.582Z" fill="black"/>
<path d="M97.1435 108.716C93.4854 107.637 78.6158 103.592 74.9077 102.773C74.8761 102.773 74.8708 102.784 74.9077 102.794C78.5079 103.933 93.4143 107.871 97.133 108.77C97.2041 108.788 97.2199 108.739 97.1435 108.716Z" fill="#263238"/>
<path d="M96.2146 105.498C95.8077 105.378 95.3771 105.333 94.95 105.368C94.5228 105.402 94.1084 105.515 93.7328 105.699C93.0556 106.025 92.5458 106.571 92.309 107.221C92.309 107.242 92.3432 107.254 92.3537 107.235C92.7011 106.621 93.2639 106.124 93.9574 105.818C94.6508 105.513 95.4374 105.415 96.1988 105.54C96.2043 105.54 96.2097 105.538 96.2141 105.536C96.2186 105.533 96.222 105.529 96.2237 105.524C96.2255 105.519 96.2255 105.514 96.2239 105.51C96.2222 105.505 96.219 105.501 96.2146 105.498Z" fill="#263238"/>
<path d="M90.7852 100.839C89.3167 100.421 87.4481 100.419 86.1612 101.241C86.1112 101.273 86.1612 101.337 86.2138 101.327C87.7108 101.077 89.2336 100.97 90.7563 101.007C90.7791 101.007 90.801 100.999 90.8181 100.986C90.8353 100.972 90.8465 100.954 90.85 100.934C90.8534 100.914 90.8488 100.893 90.837 100.876C90.8252 100.859 90.8068 100.846 90.7852 100.839Z" fill="#263238"/>
<path d="M91.788 101.542C90.3195 101.124 88.4509 101.122 87.1666 101.944C87.1166 101.976 87.1666 102.04 87.2192 102.03C88.7152 101.779 90.2371 101.671 91.759 101.708C91.783 101.71 91.8069 101.704 91.8258 101.69C91.8448 101.677 91.8574 101.658 91.861 101.637C91.8647 101.616 91.8592 101.594 91.8457 101.577C91.8321 101.559 91.8115 101.547 91.788 101.542Z" fill="#263238"/>
<path d="M92.7932 102.243C91.322 101.825 89.4535 101.825 88.1692 102.647C88.1192 102.679 88.1692 102.74 88.2218 102.733C89.7178 102.482 91.2397 102.374 92.7616 102.411C92.7847 102.411 92.807 102.403 92.8246 102.39C92.8422 102.377 92.8539 102.359 92.8577 102.339C92.8615 102.318 92.8571 102.298 92.8453 102.28C92.8335 102.263 92.815 102.249 92.7932 102.243Z" fill="#263238"/>
<path d="M93.7958 102.945C92.3273 102.527 90.4561 102.527 89.1718 103.349C89.1218 103.38 89.1718 103.443 89.2244 103.436C90.7204 103.185 92.2423 103.077 93.7642 103.114C93.7873 103.114 93.8096 103.106 93.8272 103.093C93.8448 103.08 93.8565 103.062 93.8603 103.041C93.8641 103.021 93.8597 103.001 93.8479 102.983C93.8361 102.965 93.8176 102.952 93.7958 102.945Z" fill="#263238"/>
<path d="M93.5802 97.7776C93.0249 97.0257 91.8985 97.3106 91.2406 97.7543C90.1285 98.5392 89.2689 99.5702 88.7483 100.743C88.7463 100.749 88.7456 100.754 88.7463 100.76C88.747 100.765 88.7491 100.77 88.7524 100.775C88.7556 100.78 88.76 100.784 88.7652 100.787C88.7705 100.79 88.7764 100.792 88.7825 100.792C88.7825 100.895 88.8799 101.007 89.0115 100.97C90.2826 100.61 91.6933 100.365 92.8039 99.6692C93.4513 99.2582 94.1092 98.4876 93.5802 97.7776ZM90.8142 100.069C90.1931 100.26 89.5668 100.421 88.9536 100.634C89.4198 100.04 89.9196 99.4681 90.4511 98.9196C90.7132 98.6574 90.9945 98.4109 91.2932 98.1816C91.7643 97.836 93.5881 97.1331 93.246 98.5973C93.0565 99.4053 91.5538 99.842 90.8142 100.069Z" fill="#263238"/>
<path d="M84.9163 100.23C86.14 100.753 87.577 100.788 88.9008 100.956C88.9301 100.957 88.9594 100.952 88.9862 100.941C89.013 100.931 89.0367 100.915 89.0553 100.895C89.0739 100.874 89.087 100.851 89.0936 100.825C89.1001 100.8 89.0999 100.773 89.0929 100.748C89.0992 100.746 89.1049 100.744 89.1098 100.74C89.1146 100.736 89.1183 100.731 89.1206 100.725C89.1229 100.72 89.1237 100.714 89.123 100.708C89.1223 100.702 89.1201 100.697 89.1166 100.692C88.3817 99.6164 87.3418 98.7307 86.1006 98.1233C85.3689 97.78 84.2083 97.6679 83.7978 98.4899C83.4109 99.2629 84.2031 99.9261 84.9163 100.23ZM84.282 99.2442C83.6714 97.843 85.5979 98.275 86.1242 98.5436C86.461 98.7262 86.7845 98.9275 87.0927 99.1461C87.7193 99.6095 88.3192 100.1 88.8902 100.617C88.2455 100.501 87.598 100.43 86.948 100.335C86.1821 100.223 84.6189 100.012 84.282 99.2442Z" fill="#263238"/>
<path d="M88.1481 96.986L73.1917 98.9453C73.1917 98.9453 65.0279 85.7978 61.7303 82.5285C61.5451 82.3404 61.3436 82.1655 61.1276 82.0054C60.7869 81.8702 60.4212 81.7911 60.0486 81.7718C55.6272 81.3048 40.7419 82.5798 30.4543 81.989L35.2573 76.291L37.3864 73.7643C48.9662 72.5966 63.1962 68.3932 69.6125 71.2445C76.563 74.3247 88.1481 96.986 88.1481 96.986Z" fill="#263238"/>
<path d="M86.2744 94.7301C83.7321 95.022 84.4558 94.9076 81.9188 95.2229C80.674 95.377 74.4288 96.136 73.2971 96.4512C73.2918 96.4527 73.2872 96.4557 73.284 96.4597C73.2807 96.4637 73.279 96.4685 73.279 96.4734C73.279 96.4783 73.2807 96.4831 73.284 96.4871C73.2872 96.4911 73.2918 96.494 73.2971 96.4956C74.484 96.4956 80.7108 95.6222 81.9504 95.4494C84.4821 95.0944 83.7505 95.1738 86.2796 94.7932C86.2873 94.7908 86.2939 94.7863 86.2984 94.7803C86.3029 94.7742 86.305 94.7671 86.3044 94.7599C86.3038 94.7527 86.3005 94.7458 86.2951 94.7405C86.2897 94.7351 86.2824 94.7315 86.2744 94.7301Z" fill="#37474F"/>
<path d="M73.2681 96.2666C71.5759 93.7539 63.8779 81.3607 62.3331 80.8703C60.9382 80.4266 32.9993 80.9427 32.594 80.945C32.565 80.945 32.5624 80.9847 32.594 80.9847C35.9021 80.9474 61.4383 80.8656 62.1673 81.1225C63.6805 81.6526 72.897 96.0331 73.1233 96.3343C73.1733 96.4137 73.326 96.353 73.2681 96.2666Z" fill="#37474F"/>
<path d="M22.6195 76.7837C22.6195 76.7837 21.7379 84.2565 26.0119 87.9766C31.1254 92.4276 64.8858 91.3043 70.1178 89.8028C75.3498 88.3012 75.513 80.812 69.7941 79.0746C64.3542 77.4236 40.2314 76.4755 39.6603 76.2723C39.0892 76.0691 37.4154 73.7035 37.4154 73.7035L22.6195 76.7837Z" fill="#263238"/>
<path d="M29.7647 76.5736C29.7647 76.5385 29.6937 76.5502 29.6937 76.5736C29.6987 77.5465 29.3155 78.4895 28.612 79.2357C27.8225 80.0578 26.6303 80.5178 25.5592 80.9965C25.4565 81.0432 25.5328 81.1857 25.6407 81.1577C26.2986 80.9794 26.9322 80.7374 27.5304 80.4361C28.0791 80.1755 28.5626 79.8188 28.9515 79.3875C29.2992 78.994 29.551 78.5407 29.6909 78.0563C29.8309 77.5719 29.856 77.067 29.7647 76.5736Z" fill="#37474F"/>
<path d="M39.4287 75.8075C39.1919 75.5366 38.9313 75.2798 38.6813 75.0159C38.0918 74.3947 37.4997 73.7689 36.8812 73.1687C36.8233 73.1103 36.7101 73.1921 36.7628 73.2551C37.1786 73.7362 37.6207 74.2032 38.0523 74.6749L38.7208 75.3965C38.9561 75.6103 39.166 75.8451 39.3472 76.0971C39.5077 76.3633 39.2945 76.5922 38.984 76.6225C38.7071 76.6287 38.4379 76.541 38.2313 76.3773C37.7639 76.0097 37.3366 75.604 36.9549 75.1653C36.7049 74.9178 36.4575 74.6703 36.2048 74.4251C35.9522 74.1799 35.6521 73.9183 35.3837 73.6591C35.3679 73.6428 35.3337 73.6591 35.3495 73.6848C35.5837 73.9674 35.7995 74.2663 36.0338 74.5488C36.268 74.8314 36.5048 75.1163 36.7443 75.3965C36.9838 75.6768 37.2102 75.9196 37.4523 76.1742C37.6557 76.398 37.8993 76.5905 38.1734 76.744C38.6208 76.9775 39.3972 77.0265 39.634 76.5104C39.6732 76.3877 39.6748 76.2578 39.6387 76.1343C39.6026 76.0108 39.5302 75.898 39.4287 75.8075Z" fill="#37474F"/>
<path d="M69.4047 89.8307C67.6019 89.8611 65.8018 89.9545 64.0017 89.9872C62.2015 90.0199 60.4277 90.0315 58.6407 90.0152C55.051 89.9856 51.4647 89.8618 47.882 89.6439C44.2633 89.4104 40.3604 89.1021 36.7654 88.6607C35.0442 88.4482 33.302 88.2731 31.6018 87.9485C30.0734 87.6908 28.6598 87.0507 27.5279 86.1036C25.2014 84.1 24.296 81.1529 23.9223 78.3389C23.8723 77.9606 23.8328 77.5823 23.7986 77.204C23.7986 77.1783 23.7513 77.1783 23.7539 77.204C23.9644 80.0904 24.4697 83.1005 26.5146 85.4194C27.3792 86.4305 28.5283 87.2222 29.8465 87.715C31.4571 88.2871 33.2441 88.4155 34.9442 88.6257C38.5524 89.0601 42.4711 89.3963 46.1003 89.6462C49.7295 89.8961 53.4166 90.0549 57.0801 90.1016C60.7435 90.1483 64.4069 90.1016 68.0677 89.9451C68.5125 89.9241 68.9599 89.9008 69.4047 89.8681C69.4284 89.8657 69.4284 89.8307 69.4047 89.8307Z" fill="#37474F"/>
<path d="M74.2103 82.846C73.8681 81.5933 73.0076 80.5005 71.7996 79.7845C70.5022 78.9975 68.952 78.6402 67.4151 78.4417C65.6781 78.2082 63.9201 78.1031 62.1726 77.9536C58.5899 77.6423 55.0036 77.3566 51.4139 77.0966C47.8294 76.8351 40.0972 76.3026 39.6709 76.2886C39.6314 76.2886 39.6235 76.3447 39.6709 76.347C43.1317 76.6879 46.2819 76.9822 49.7506 77.2624C53.2193 77.5426 56.7222 77.8369 60.204 78.1428C61.941 78.2985 63.6762 78.4542 65.4097 78.6098C67.0177 78.757 68.6704 78.9017 70.1785 79.4529C71.4733 79.9199 72.6365 80.6859 73.2945 81.8021C73.9128 82.9014 74.0981 84.1527 73.8208 85.3564C73.5783 86.4779 72.9939 87.5191 72.1312 88.3665C71.3086 89.2029 70.2117 89.7901 68.9942 90.0456C68.6783 90.1063 68.2941 90.1507 68.002 90.202C67.9809 90.202 67.9572 90.2487 67.9809 90.2487C70.5732 90.3071 72.9813 88.6257 73.9077 86.524C74.4303 85.3544 74.5359 84.0706 74.2103 82.846Z" fill="#37474F"/>
<path d="M35.4388 58.3585C37.3837 63.3303 41.3682 70.7914 43.1472 71.4803C46.1106 72.6269 53.0006 73.4069 57.0799 73.2388C58.3668 73.185 57.4588 64.7291 56.0614 64.6801C52.4585 64.554 47.0923 64.5119 46.7186 64.4302C46.0422 64.2854 41.9419 60.0703 38.8232 56.7916C35.8941 53.6974 34.5229 56.0139 35.4388 58.3585Z" fill="#EB9481"/>
<path d="M61.4777 71.924C60.9198 72.0805 61.0093 72.3421 61.9857 72.6667C62.962 72.9913 67.136 73.54 66.7965 74.8151C66.457 76.0901 60.5803 75.2424 59.0012 74.5816C57.4222 73.9207 55.1246 72.3888 55.1246 72.3888C56.3063 72.3607 59.1618 72.0198 61.4777 71.924Z" fill="#EB9481"/>
<path d="M55.764 64.6965C59.0958 64.6965 63.2435 64.5166 66.4806 66.2097C66.8469 66.3886 67.1336 66.6727 67.2938 67.0154C68.7624 67.751 68.8097 68.587 68.8097 68.587C69.9414 69.6425 69.8624 70.5019 69.8624 70.5019C69.8624 70.5019 71.5757 71.3823 71.1468 72.3888C70.6704 73.519 68.3597 72.0618 66.5385 71.9497C62.3619 71.6929 56.343 72.3654 55.1298 72.3981L55.764 64.6965Z" fill="#EB9481"/>
<path d="M62.3674 68.9512C63.5905 69.0148 64.8073 69.1513 66.0097 69.3599C67.309 69.6654 68.5809 70.0557 69.8153 70.5275C69.823 70.5309 69.8319 70.5315 69.84 70.5291C69.8482 70.5267 69.8549 70.5215 69.8587 70.5147C69.8626 70.5079 69.8632 70.5 69.8605 70.4928C69.8578 70.4856 69.8519 70.4796 69.8442 70.4762C67.7072 69.3669 64.8439 68.8065 62.3726 68.9116C62.3121 68.9045 62.2989 68.9466 62.3674 68.9512Z" fill="#263238"/>
<path d="M62.1777 66.6931C63.3646 66.8449 65.4516 67.1275 68.794 68.6174C68.794 68.6174 68.8177 68.6174 68.794 68.601C66.8375 67.4197 64.5497 66.7438 62.1856 66.6487C62.1093 66.6487 62.0988 66.6814 62.1777 66.6931Z" fill="#263238"/>
<path d="M62.0987 65.4811C64.1093 65.8104 65.3279 66.2448 67.2833 67.0247C67.2833 67.0247 67.307 67.0248 67.2833 67.0061C65.1778 65.9132 64.2594 65.7287 62.0908 65.4181C62.0355 65.4041 62.0197 65.4648 62.0987 65.4811Z" fill="#263238"/>
<path d="M55.2877 64.5586L54.7613 73.7805C54.7613 73.7805 43.8868 72.9305 42.3657 71.4686C40.8445 70.0067 36.1152 61.5368 35.1914 58.09C34.2677 54.6431 36.6652 54.3535 38.8312 56.551C40.9971 58.7485 46.5344 64.0659 46.8239 64.1196C47.1134 64.1733 55.2877 64.5586 55.2877 64.5586Z" fill="#455A64"/>
<path d="M52.6954 71.2235C52.727 70.7222 52.7595 70.2209 52.7928 69.7196C52.8586 68.7388 52.9402 67.7603 53.0218 66.7819C53.0665 66.2424 53.1218 65.7006 53.1481 65.1589C53.1481 65.1262 53.0928 65.1238 53.0876 65.1589C52.9033 66.1233 52.8086 67.1018 52.7191 68.0756C52.6296 69.0494 52.5612 70.0092 52.527 70.9783C52.5086 71.5341 52.527 72.0875 52.527 72.6457C52.527 72.6644 52.5665 72.6667 52.5691 72.6457C52.6033 72.1693 52.6638 71.6976 52.6954 71.2235Z" fill="#263238"/>
<path d="M49.6846 73.2482C46.6239 72.8512 43.1657 72.2463 42.3551 71.4687C40.8313 70.0045 36.1152 61.5369 35.1809 58.09C34.8414 56.8313 34.944 55.9883 35.323 55.5423L49.6846 73.2482Z" fill="#263238"/>
<path d="M21.8748 78.9485L42.4026 74.4508C42.679 74.1706 39.8761 59.4001 36.3338 55.2434C35.4495 54.2042 32.4414 54.1341 31.0386 55.0799C24.1013 59.7597 21.8853 78.708 21.8748 78.9485Z" fill="#455A64"/>
<path opacity="0.6" d="M57.4354 63.3326C57.4354 63.3326 61.8121 61.5345 61.8094 59.1292C61.8068 56.7239 56.1222 55.2059 56.1169 53.3214C56.1116 51.4368 58.5908 50.3393 58.5908 50.3393C58.5908 50.3393 54.6799 51.5303 54.6826 53.9029C54.6852 56.2755 58.4355 57.8728 58.796 59.3884C59.2961 61.4831 57.4354 63.3326 57.4354 63.3326Z" fill="#EBEBEB"/>
<path opacity="0.6" d="M57.651 63.3326C57.651 63.3326 53.2691 61.9314 53.2664 60.0422C53.2638 58.153 58.9406 56.9317 58.9379 55.4581C58.9353 53.9846 56.4562 53.1229 56.4562 53.1229C56.4562 53.1229 60.3722 54.057 60.3749 55.9252C60.3775 57.7934 56.0798 59.0801 55.7745 60.5957C55.4693 62.1113 57.651 63.3326 57.651 63.3326Z" fill="#EBEBEB"/>
<path d="M59.577 69.3622L55.4109 69.368L55.4119 69.9448L59.578 69.939L59.577 69.3622Z" fill="#FF2626"/>
<path opacity="0.1" d="M59.577 69.3622L55.4109 69.368L55.4116 69.7487L59.5777 69.7429L59.577 69.3622Z" fill="black"/>
<path d="M50.4558 67.8164C50.7461 68.2088 51.1798 68.5005 51.684 68.6426C52.1882 68.7846 52.7322 68.7683 53.2244 68.5963C53.432 68.5244 53.6297 68.432 53.8139 68.3208L53.2876 67.6202C53.1886 67.6805 53.0838 67.7329 52.9744 67.7767C52.6761 67.8998 52.338 67.9244 52.021 67.8461C51.704 67.7677 51.429 67.5916 51.2453 67.3493C50.6716 66.6488 50.4558 65.0141 51.0427 64.3859C51.0822 64.3392 51.248 64.2645 51.9191 64.3859C52.0428 64.4116 52.1822 64.4373 52.3428 64.477C52.4663 64.5145 52.5944 64.5388 52.7244 64.5494L52.7402 64.1314L52.7849 63.7133L52.5849 63.669C52.2749 63.588 51.9581 63.5295 51.6375 63.4938C51.1453 63.4495 50.6269 63.4938 50.3216 63.8488C49.3583 64.8693 49.7426 66.9337 50.4558 67.8164Z" fill="#FF2626"/>
<path opacity="0.1" d="M53.2901 67.6342C53.1912 67.6945 53.0864 67.7468 52.9771 67.7906L53.2401 68.6053C53.4476 68.5334 53.6453 68.441 53.8294 68.3298L53.2901 67.6342Z" fill="black"/>
<path opacity="0.1" d="M51.6244 63.4891L51.9059 64.3808C52.0296 64.4065 52.169 64.4322 52.3295 64.4719C52.4529 64.5094 52.581 64.5337 52.711 64.5443L52.7267 64.1264L52.7715 63.7085L52.5715 63.6642C52.2616 63.5833 51.9449 63.5247 51.6244 63.4891Z" fill="black"/>
<path d="M63.0225 62.3845C63.0225 62.3845 62.5304 66.1536 61.6698 67.7416C60.8092 69.3296 59.6038 69.507 58.8538 69.507H56.1299C55.3824 69.507 54.1771 69.3319 53.3112 67.7486C52.4454 66.1653 51.9375 62.3939 51.9375 62.3939L63.0225 62.3845Z" fill="#FF2626"/>
<g opacity="0.1">
<path d="M62.4357 65.5139C62.3515 65.8619 62.2567 66.2145 62.1541 66.5274L52.8218 66.5415C52.7165 66.2192 52.6218 65.8759 52.5349 65.528L62.4357 65.5139Z" fill="black"/>
<path d="M62.0357 66.9126C61.9725 67.0924 61.9067 67.2629 61.8383 67.4193L53.1534 67.431C53.0824 67.2745 53.0166 67.1041 52.9508 66.9242L62.0357 66.9126Z" fill="black"/>
<path d="M62.6488 64.5612C62.6146 64.727 62.5804 64.8951 62.5409 65.0679L52.4323 65.0819C52.3902 64.9091 52.3533 64.741 52.3191 64.5752L62.6488 64.5612Z" fill="black"/>
</g>
<path d="M28.7464 59.2903C25.7804 66.4829 25.8962 72.7694 27.0541 73.8063C29.578 76.0668 40.5473 73.5727 43.2896 73.2248C44.3976 73.087 41.0499 65.2242 39.892 65.4928C37.1654 66.1279 33.2836 67.3213 33.1441 67.2862C32.8651 67.2162 33.1441 65.0421 32.7835 59.288C32.4993 54.6315 29.9596 56.3503 28.7464 59.2903Z" fill="#EB9481"/>
<path d="M53.7508 64.0542C53.8245 65.028 51.1033 64.9883 51.1033 64.9883C51.5145 65.1976 51.8302 65.5281 51.9955 65.9224C52.2586 66.623 51.1138 67.2955 51.1138 67.2955C51.4906 67.5906 51.7584 67.9796 51.8823 68.4118C52.0481 69.1124 51.0085 69.9274 51.0085 69.9274C51.1769 70.3693 51.1686 70.8493 50.9848 71.2865C50.09 73.2084 44.0264 73.568 42.2737 73.3462L39.4208 65.794C39.4208 65.794 44.2843 62.597 46.7398 62.3681C48.1031 62.242 53.635 62.5666 53.7508 64.0542Z" fill="#EB9481"/>
<path d="M51.0768 64.9627C49.6162 64.6731 48.0792 64.6941 46.6028 64.7291C46.5975 64.7307 46.593 64.7336 46.5897 64.7376C46.5865 64.7416 46.5847 64.7464 46.5847 64.7513C46.5847 64.7562 46.5865 64.761 46.5897 64.765C46.593 64.769 46.5975 64.772 46.6028 64.7735C48.0792 64.8155 49.603 65.0234 51.0768 65.0257C51.0846 65.0238 51.0915 65.0197 51.0964 65.014C51.1013 65.0083 51.1039 65.0013 51.1039 64.9942C51.1039 64.987 51.1013 64.9801 51.0964 64.9744C51.0915 64.9687 51.0846 64.9646 51.0768 64.9627Z" fill="#263238"/>
<path d="M51.0902 67.2535C50.7512 67.2139 50.4079 67.2139 50.069 67.2535C49.7085 67.2792 49.3479 67.3096 48.99 67.3446C48.2689 67.4147 47.5504 67.4987 46.8346 67.6015C46.803 67.6015 46.803 67.6505 46.8346 67.6482C47.553 67.5781 48.2715 67.5198 48.9926 67.4777L50.0743 67.4217C50.4155 67.4269 50.7563 67.3979 51.0902 67.3353C51.0984 67.3312 51.1052 67.3253 51.11 67.3181C51.1148 67.3109 51.1173 67.3028 51.1173 67.2944C51.1173 67.2861 51.1148 67.2779 51.11 67.2707C51.1052 67.2635 51.0984 67.2576 51.0902 67.2535Z" fill="#263238"/>
<path d="M50.9824 69.9297C50.6753 69.8994 50.3646 69.916 50.0639 69.9788L49.0822 70.0885C48.4269 70.1586 47.7663 70.2263 47.1136 70.2754C47.0794 70.2754 47.0821 70.3244 47.1136 70.3221C47.7821 70.2754 48.4532 70.2357 49.1191 70.1843L50.1033 70.1026C50.4054 70.1008 50.7047 70.0518 50.9876 69.9578C50.9981 69.9531 50.9824 69.9321 50.9824 69.9297Z" fill="#263238"/>
<path d="M51.1321 70.586C51.1729 70.972 51.0562 71.3581 50.8032 71.6742C50.5403 71.9853 50.1925 72.232 49.7926 72.3911C49.0185 72.7223 48.2032 72.9715 47.3634 73.1337C46.53 73.3045 45.6825 73.4161 44.829 73.4677C43.9746 73.5195 43.1166 73.5023 42.2657 73.4163H42.2973C41.6604 73.5167 41.0182 73.6101 40.3787 73.6965C41.0051 73.5502 41.6341 73.4108 42.2657 73.2785H42.2894C43.1315 73.3202 43.9759 73.3069 44.8159 73.2388C45.6555 73.1743 46.4897 73.0628 47.3134 72.9049C48.1363 72.7502 48.9415 72.529 49.7189 72.244C50.1038 72.106 50.4465 71.8891 50.719 71.6111C50.9847 71.3213 51.1305 70.9595 51.1321 70.586Z" fill="#263238"/>
<path d="M39.5182 65.3456L41.3473 74.1892C41.3473 74.1892 27.8226 76.5478 26.5067 73.7035C25.1908 70.8591 26.9014 61.7774 29.1174 58.1997C31.3334 54.6221 32.6677 56.5511 32.9151 59.1338C33.1624 61.7166 33.273 66.9009 33.3335 66.8986C33.394 66.8962 39.5182 65.3456 39.5182 65.3456Z" fill="#455A64"/>
<path d="M38.6128 72.4869L38.3496 70.9993C38.1741 70.0309 38.0127 69.0603 37.8653 68.0872C37.7811 67.5501 37.7022 67.013 37.6022 66.4782C37.6022 66.4708 37.5988 66.4637 37.5929 66.4584C37.587 66.4532 37.579 66.4502 37.5706 66.4502C37.5622 66.4502 37.5542 66.4532 37.5483 66.4584C37.5423 66.4637 37.539 66.4708 37.539 66.4782C37.5916 67.4567 37.7364 68.4305 37.8838 69.3996C38.0311 70.3688 38.1996 71.3169 38.397 72.2697C38.5128 72.8161 38.6601 73.3556 38.8023 73.9043C38.8023 73.923 38.847 73.9184 38.8444 73.9043C38.7496 73.421 38.6944 72.9539 38.6128 72.4869Z" fill="#263238"/>
<path d="M41.5078 74.2803C41.4473 73.9767 41.3867 73.6755 41.3051 73.3742C41.301 73.3624 41.2922 73.3523 41.2803 73.3458C41.2684 73.3393 41.2543 73.3368 41.2406 73.3388C41.2268 73.3408 41.2143 73.3471 41.2054 73.3566C41.1964 73.3661 41.1917 73.3782 41.192 73.3906C41.192 73.6708 41.2315 73.9487 41.263 74.2266C39.388 74.5642 37.4884 74.7835 35.5784 74.8828C33.6365 74.9693 31.6898 74.9083 29.7595 74.7006C29.2885 74.6516 28.8147 74.6025 28.3489 74.5208C27.9383 74.4648 27.5556 74.3023 27.2488 74.0538C26.6251 73.5237 26.4593 72.739 26.3882 72.0034C26.3198 71.1557 26.333 70.2987 26.3593 69.4486C26.3856 68.5986 26.4514 67.7299 26.5488 66.8799C26.6567 65.9201 26.8119 64.9673 26.9988 64.0169C27.1857 63.0664 27.3883 62.0996 27.6541 61.1562C27.6541 61.1352 27.6225 61.1258 27.6146 61.1562C27.448 61.6715 27.2936 62.1899 27.1514 62.7114C27.1514 62.6647 27.1514 62.6204 27.1514 62.576C27.1514 62.4009 27.1514 62.2257 27.1514 62.0529C27.1514 62.048 27.1492 62.0432 27.1453 62.0397C27.1413 62.0362 27.136 62.0342 27.1304 62.0342C27.1248 62.0342 27.1195 62.0362 27.1155 62.0397C27.1116 62.0432 27.1093 62.048 27.1093 62.0529C27.0587 62.2222 27.0313 62.3962 27.0278 62.5713C27.0278 62.6601 27.0278 62.7465 27.0278 62.8352C27.0278 62.8889 27.0278 62.9473 27.0462 63.0034C26.7514 64.1134 26.5238 65.2368 26.3645 66.3685C26.1251 68.1209 26.0223 69.8858 26.0566 71.6508C26.0698 72.4214 26.1593 73.2294 26.6514 73.8903C26.8613 74.183 27.1509 74.4239 27.4936 74.5909C27.9204 74.7595 28.3757 74.8644 28.841 74.9015C30.7935 75.1609 32.7681 75.2656 34.7415 75.2144C36.9882 75.1778 39.2229 74.9146 41.4025 74.4297C41.4218 74.4284 41.4404 74.423 41.4569 74.4141C41.4734 74.4052 41.4873 74.393 41.4975 74.3785C41.5077 74.364 41.514 74.3475 41.5158 74.3305C41.5176 74.3134 41.5148 74.2962 41.5078 74.2803Z" fill="#263238"/>
<path d="M39.5523 65.327C39.5518 65.3178 39.549 65.3088 39.5442 65.3007C39.5393 65.2925 39.5325 65.2854 39.5242 65.2798C39.5159 65.2743 39.5064 65.2704 39.4962 65.2684C39.4861 65.2665 39.4756 65.2666 39.4654 65.2686C38.9391 65.3714 38.4127 65.5022 37.8864 65.6329C37.36 65.7637 36.8337 65.8665 36.3257 65.9996C35.3467 66.2331 34.3703 66.4946 33.4071 66.7819C33.4439 66.3388 33.4439 65.8939 33.4071 65.4508C33.3834 64.937 33.3545 64.4256 33.3202 63.9118C33.286 63.3981 33.2518 62.854 33.215 62.3262C33.2593 62.1952 33.2945 62.0618 33.3202 61.9269C33.3492 61.7357 33.3545 61.5423 33.336 61.3501C33.336 61.3384 33.3124 61.3337 33.3097 61.3501C33.286 61.5392 33.2413 61.7284 33.2123 61.9175C33.2123 61.9596 33.1965 62.0039 33.1913 62.046C33.1571 61.6326 33.1202 61.2193 33.0729 60.806C33.0729 60.792 33.0465 60.792 33.0465 60.806C33.0281 61.8428 33.0676 62.8773 33.1018 63.9165C33.1176 64.4303 33.136 64.944 33.1623 65.4578C33.1701 65.9118 33.2177 66.3647 33.3045 66.8122H33.2755C32.7239 66.9786 32.1865 67.18 31.6675 67.4147C31.6464 67.4147 31.6675 67.4521 31.6833 67.4474C32.9728 67.1135 34.2466 66.7282 35.5362 66.3989C36.1889 66.2331 36.8521 66.072 37.4942 65.9038C38.1364 65.7357 38.8101 65.5886 39.4418 65.3994C39.4602 65.4625 39.476 65.5278 39.4997 65.5909C39.5014 65.6002 39.5072 65.6085 39.5159 65.614C39.5245 65.6194 39.5352 65.6216 39.5457 65.6201C39.5562 65.6185 39.5655 65.6134 39.5717 65.6057C39.5779 65.598 39.5804 65.5885 39.5786 65.5792C39.5707 65.4998 39.5602 65.4134 39.5523 65.327Z" fill="#263238"/>
<path d="M31.4544 49.8886C31.4848 50.3788 31.4654 50.8704 31.3965 51.3575C31.2886 51.7335 30.3307 52.1305 30.3307 52.1305C30.3307 52.1305 31.4202 52.4738 31.7308 52.4084C32.0413 52.343 32.5413 51.6377 32.5413 51.6377C32.5413 51.6377 32.0808 52.7657 31.6387 52.8241C31.3623 52.8614 32.3124 52.8708 32.3124 52.8708C32.6275 52.8519 32.9236 52.7305 33.144 52.5298C33.4677 52.2052 31.4544 49.8886 31.4544 49.8886Z" fill="#263238"/>
<path d="M35.5231 58.0082C34.6046 58.0363 32.7202 56.4973 31.9912 55.2059C31.9412 55.1172 32.1281 54.2088 32.2965 53.1042C32.3965 52.4293 32.4886 51.675 32.515 50.9815L37.3759 52.1701C37.0617 53.0287 36.8664 53.9179 36.7942 54.8183C36.7925 54.9137 36.8004 55.0091 36.8179 55.1032C36.8179 55.1172 36.8179 55.1336 36.8179 55.1522C36.8995 55.7057 36.9574 57.9522 35.5231 58.0082Z" fill="#EB9481"/>
<path d="M36.8155 55.1125C36.8173 55.1288 36.8173 55.1453 36.8155 55.1616C36.6473 55.1735 36.4783 55.1735 36.3102 55.1616C33.5231 55.0145 32.9625 51.9786 32.8599 51.0445L37.3787 52.1701C37.0632 53.0293 36.867 53.9193 36.7944 54.8206C36.7928 54.9183 36.7998 55.0159 36.8155 55.1125Z" fill="#263238"/>
<path d="M31.7702 45.4961C31.1491 47.014 31.7991 51.5117 32.9782 52.5625C34.6835 54.0851 37.6074 54.3607 39.0997 52.5135C40.5471 50.7247 39.5813 44.8772 38.2522 43.9104C36.31 42.4859 32.6992 43.2566 31.7702 45.4961Z" fill="#EB9481"/>
<path d="M35.4545 47.6045C35.5953 47.5539 35.7331 47.497 35.8675 47.4341C36.0221 47.3915 36.1569 47.3054 36.2516 47.189C36.2736 47.1472 36.279 47.1 36.2671 47.0551C36.2551 47.0102 36.2265 46.9702 36.1859 46.9415C36.0964 46.8952 35.9948 46.8707 35.8912 46.8707C35.7876 46.8707 35.686 46.8952 35.5965 46.9415C35.3991 47.0109 35.2372 47.1422 35.1414 47.3104C35.1281 47.3496 35.1267 47.3914 35.1374 47.4313C35.1481 47.4712 35.1704 47.5079 35.2021 47.5377C35.2339 47.5675 35.2739 47.5894 35.3182 47.6011C35.3625 47.6129 35.4095 47.614 35.4545 47.6045Z" fill="#263238"/>
<path d="M38.8361 47.3102C38.685 47.2955 38.5348 47.2737 38.3862 47.2449C38.2247 47.2427 38.0685 47.1935 37.9416 47.1048C37.9079 47.0698 37.8881 47.0259 37.8853 46.98C37.8824 46.934 37.8967 46.8885 37.9258 46.8504C37.9972 46.7831 38.0875 46.7341 38.1874 46.7082C38.2873 46.6824 38.3932 46.6807 38.4941 46.7033C38.7033 46.7192 38.8988 46.8022 39.044 46.9367C39.0731 46.9713 39.091 47.0123 39.0955 47.0553C39.1 47.0982 39.0909 47.1415 39.0694 47.1802C39.0479 47.2189 39.0147 47.2515 38.9735 47.2745C38.9323 47.2974 38.8848 47.3098 38.8361 47.3102Z" fill="#263238"/>
<path d="M36.0917 51.117C36.1811 51.18 36.2732 51.2711 36.3968 51.2711C36.5245 51.258 36.6474 51.2205 36.7573 51.1613C36.7598 51.1597 36.7629 51.1588 36.7661 51.159C36.7692 51.1592 36.7722 51.1604 36.7745 51.1624C36.7767 51.1644 36.7781 51.1671 36.7783 51.1699C36.7785 51.1727 36.7776 51.1754 36.7757 51.1777C36.7327 51.2414 36.6712 51.2937 36.5976 51.329C36.524 51.3644 36.441 51.3814 36.3574 51.3784C36.2857 51.3691 36.2189 51.3407 36.1658 51.2969C36.1127 51.2531 36.0758 51.1961 36.0601 51.1333C36.0522 51.117 36.0785 51.1077 36.0917 51.117Z" fill="#263238"/>
<path d="M36.3522 50.1759C36.452 50.2888 36.5773 50.382 36.7201 50.4496C36.8628 50.5172 37.0199 50.5575 37.1812 50.5682C37.3218 50.5806 37.4637 50.5743 37.6023 50.5495C37.6291 50.5473 37.6555 50.5426 37.6812 50.5355L37.7549 50.5191C37.773 50.5145 37.7887 50.5046 37.7997 50.491C37.8107 50.4775 37.8162 50.4611 37.8155 50.4444C37.8167 50.4343 37.8167 50.4242 37.8155 50.4141V50.3884C37.797 50.1549 37.7339 49.7999 37.7339 49.7999C37.8339 49.8326 38.3471 49.9867 38.326 49.8653C38.1822 48.8135 37.9176 47.7775 37.5365 46.7734C37.5345 46.7676 37.5305 46.7625 37.5251 46.7589C37.5196 46.7553 37.513 46.7534 37.5062 46.7534C37.4994 46.7534 37.4928 46.7553 37.4873 46.7589C37.4819 46.7625 37.4779 46.7676 37.476 46.7734C37.6023 47.7472 37.9234 48.693 38.0707 49.6691C37.8884 49.6122 37.6979 49.5784 37.5049 49.5687C37.4681 49.5804 37.6418 50.2506 37.6418 50.3557C37.6424 50.3596 37.6424 50.3635 37.6418 50.3674C37.4276 50.4046 37.2073 50.4031 36.9938 50.363C36.7804 50.3229 36.5782 50.2449 36.3996 50.1338C36.3522 50.1315 36.3285 50.1525 36.3522 50.1759Z" fill="#263238"/>
<path d="M37.4334 50.4443C37.3027 50.6254 37.1214 50.7733 36.9072 50.8739C36.7907 50.9248 36.6596 50.9436 36.531 50.9275C36.2521 50.8855 36.2206 50.6638 36.2495 50.4607C36.2662 50.3568 36.2962 50.255 36.339 50.1572C36.6588 50.356 37.0431 50.4569 37.4334 50.4443Z" fill="#263238"/>
<path d="M36.9203 50.8739C36.8038 50.9249 36.6728 50.9436 36.5441 50.9276C36.2652 50.8856 36.2337 50.6638 36.2626 50.4607C36.4088 50.453 36.5537 50.4897 36.6732 50.5648C36.7928 50.6399 36.8799 50.7489 36.9203 50.8739Z" fill="#FF9BBC"/>
<path d="M35.6522 48.6344C35.6711 48.7155 35.7158 48.7901 35.7811 48.8492C35.8177 48.881 35.8615 48.9055 35.9096 48.9212C35.9576 48.9369 36.0089 48.9434 36.06 48.9403C36.1134 48.9376 36.1652 48.9235 36.2111 48.8991C36.2569 48.8747 36.2954 48.8408 36.3231 48.8002C36.3714 48.7295 36.3994 48.6493 36.4046 48.5667C36.4086 48.5193 36.4086 48.4717 36.4046 48.4243C36.399 48.3234 36.3665 48.225 36.3099 48.1372C36.3178 48.2094 36.3178 48.2821 36.3099 48.3543C36.3028 48.4194 36.2914 48.4841 36.2757 48.5481C36.2389 48.6788 36.1626 48.7815 36.0495 48.7815C35.9363 48.7815 35.8337 48.7091 35.7864 48.5854C35.73 48.4548 35.6886 48.3195 35.6627 48.1816C35.6174 48.3295 35.6138 48.485 35.6522 48.6344Z" fill="#263238"/>
<path d="M38.2735 48.4056C38.2808 48.4896 38.3135 48.5703 38.3682 48.6391C38.3999 48.6748 38.4397 48.7043 38.485 48.7256C38.5303 48.7469 38.5801 48.7596 38.6313 48.7628C38.6836 48.7656 38.7359 48.7573 38.784 48.7386C38.832 48.7199 38.8743 48.6914 38.9075 48.6554C38.9646 48.5923 39.0034 48.5178 39.0206 48.4383C39.0324 48.3914 39.0403 48.3438 39.0443 48.2959C39.0524 48.1956 39.0344 48.0949 38.9917 48.0018C38.9913 48.0741 38.9816 48.1462 38.9628 48.2165C38.9473 48.2809 38.9262 48.3442 38.8996 48.4056C38.8444 48.5293 38.7549 48.6391 38.6365 48.6181C38.5182 48.597 38.434 48.5223 38.3945 48.3846C38.3655 48.2468 38.3505 48.1069 38.3498 47.9668C38.2837 48.1052 38.2575 48.256 38.2735 48.4056Z" fill="#263238"/>
<path d="M31.8966 49.4893C32.8124 49.2067 33.1072 46.4138 33.1072 46.4138L33.3704 47.927C33.791 47.5759 34.1236 47.1502 34.3468 46.6776C34.5013 46.1832 34.494 45.66 34.3257 45.1691C35.0421 45.6007 35.8385 45.9169 36.6785 46.1032C37.1207 46.1849 39.9551 46.0892 39.9446 45.9117C39.9103 45.3816 38.9313 43.6138 38.0892 43.1654C37.118 42.6493 34.8784 42.0165 32.994 42.7684C31.4887 43.3686 31.7045 44.4171 31.415 45.1737C31.415 45.1737 30.3465 46.0284 30.3175 46.4394C30.2702 47.3222 31.5624 49.6014 31.8966 49.4893Z" fill="#263238"/>
<path d="M32.6388 49.1764C32.6388 49.1764 31.5545 47.7028 30.7966 48.0415C30.0386 48.3801 30.8229 50.4935 31.6782 50.8041C31.7848 50.8505 31.9008 50.8774 32.0194 50.8831C32.1379 50.8887 32.2565 50.8731 32.3681 50.8371C32.4797 50.8012 32.5819 50.7456 32.6687 50.6737C32.7554 50.6018 32.825 50.5151 32.873 50.4187L32.6388 49.1764Z" fill="#EB9481"/>
<path d="M31.0439 48.6416C31.0308 48.6416 31.0282 48.6579 31.0439 48.6626C31.644 48.8961 31.944 49.4075 32.1493 49.9306C32.1157 49.8758 32.0693 49.8281 32.0131 49.7906C31.9568 49.7532 31.8922 49.7269 31.8235 49.7137C31.7549 49.7004 31.6838 49.7003 31.6151 49.7136C31.5464 49.7269 31.4818 49.7531 31.4256 49.7905C31.421 49.7924 31.4175 49.7957 31.4158 49.7999C31.414 49.8041 31.4142 49.8087 31.4163 49.8127C31.4184 49.8167 31.4222 49.8198 31.4269 49.8214C31.4316 49.8229 31.4368 49.8227 31.4413 49.8209C31.549 49.7935 31.6636 49.7966 31.7693 49.8296C31.8749 49.8627 31.9663 49.9241 32.0309 50.0053C32.1358 50.1422 32.224 50.2886 32.294 50.442C32.323 50.4911 32.4204 50.4677 32.4019 50.4117C32.4033 50.4079 32.4033 50.4038 32.4019 50.4C32.4388 49.7134 31.873 48.735 31.0439 48.6416Z" fill="#263238"/>
<path d="M36.8102 54.5988L35.9654 57.3077L31.9309 54.3887L31.0387 55.5399C31.0387 55.5399 35.2338 60.3879 35.2259 60.1497L36.147 57.8145L38.0866 59.1759L37.4576 55.2971L36.8102 54.5988Z" fill="#EBEBEB"/>
<path d="M37.8864 57.247C37.7574 56.6095 37.6495 55.965 37.489 55.3345C37.489 55.3111 37.4416 55.3041 37.439 55.3345C37.3705 55.9696 37.8758 58.4053 37.9469 58.9938C37.8653 58.9354 36.1678 57.7888 36.1547 57.8122C35.9388 58.1905 35.2625 59.9022 35.2204 60.0563C34.5572 59.2857 32.0307 56.4951 31.2727 55.7805C31.2683 55.777 31.2627 55.775 31.2569 55.7746C31.251 55.7743 31.2452 55.7757 31.2403 55.7787C31.2355 55.7817 31.2319 55.786 31.2301 55.7909C31.2284 55.7959 31.2285 55.8013 31.2306 55.8062C31.8359 56.6305 35.1783 60.3903 35.2283 60.3763C35.5961 59.5639 35.9167 58.7354 36.1889 57.8939C36.4836 58.1508 38.218 59.4632 38.2101 59.3651C38.1445 58.6545 38.0365 57.9475 37.8864 57.247Z" fill="#263238"/>
</svg>
