<svg width="130" height="48" viewBox="0 0 130 48" fill="none" xmlns="http://www.w3.org/2000/svg">
<rect x="0.315308" y="0.907471" width="46.6887" height="46.6887" rx="3.89073" fill="#FF2626"/>
<path d="M23.7775 15.1026C23.8078 15.2812 24.3892 18.6932 24.3892 19.9964C24.3892 21.9835 23.3329 23.4008 21.7713 23.9707L22.2614 33.0174C22.288 33.5379 21.8739 33.9787 21.3496 33.9787H18.9179C18.3973 33.9787 17.9794 33.5417 18.006 33.0174L18.4961 23.9707C16.9307 23.4008 15.8782 21.9797 15.8782 19.9964C15.8782 18.6894 16.4596 15.2812 16.49 15.1026C16.6115 14.3313 18.2111 14.3199 18.3099 15.1444V20.5093C18.3593 20.6385 18.8837 20.6309 18.9179 20.5093C18.971 19.5481 19.218 15.2204 19.2218 15.1216C19.3472 14.3313 20.9202 14.3313 21.0418 15.1216C21.0494 15.2242 21.2926 19.5481 21.3458 20.5093C21.3799 20.6309 21.9081 20.6385 21.9537 20.5093V15.1444C22.0525 14.3237 23.6559 14.3313 23.7775 15.1026ZM28.3065 25.9579L27.7366 32.9908C27.691 33.5227 28.1127 33.9787 28.6446 33.9787H30.7724C31.2777 33.9787 31.6843 33.5721 31.6843 33.0668V15.437C31.6843 14.9354 31.2777 14.5251 30.7724 14.5251C27.6378 14.5251 22.3602 21.3072 28.3065 25.9579Z" fill="white"/>
<path d="M70.3483 18.3889V20.1475H65.8195V22.9333H69.2901V24.6608H65.8195V29.2518H63.6407V18.3889H70.3483ZM75.7218 29.3919C74.8918 29.3919 74.1448 29.2103 73.4807 28.8472C72.8167 28.4737 72.2928 27.9497 71.9089 27.2753C71.5354 26.6009 71.3486 25.8228 71.3486 24.9409C71.3486 24.059 71.5406 23.2809 71.9245 22.6065C72.3187 21.9321 72.853 21.4133 73.5274 21.0502C74.2018 20.6767 74.954 20.4899 75.7841 20.4899C76.6141 20.4899 77.3663 20.6767 78.0407 21.0502C78.7151 21.4133 79.2442 21.9321 79.6281 22.6065C80.0224 23.2809 80.2195 24.059 80.2195 24.9409C80.2195 25.8228 80.0172 26.6009 79.6125 27.2753C79.2183 27.9497 78.6788 28.4737 77.994 28.8472C77.3196 29.2103 76.5622 29.3919 75.7218 29.3919ZM75.7218 27.4932C76.1161 27.4932 76.4844 27.3998 76.8268 27.2131C77.1795 27.016 77.4597 26.7255 77.6672 26.3416C77.8747 25.9577 77.9784 25.4908 77.9784 24.9409C77.9784 24.1213 77.7605 23.4936 77.3248 23.0578C76.8994 22.6117 76.3754 22.3886 75.7529 22.3886C75.1304 22.3886 74.6065 22.6117 74.1811 23.0578C73.7661 23.4936 73.5586 24.1213 73.5586 24.9409C73.5586 25.7606 73.7609 26.3934 74.1655 26.8396C74.5805 27.2753 75.0993 27.4932 75.7218 27.4932ZM85.6462 29.3919C84.8162 29.3919 84.0692 29.2103 83.4051 28.8472C82.7411 28.4737 82.2172 27.9497 81.8333 27.2753C81.4598 26.6009 81.273 25.8228 81.273 24.9409C81.273 24.059 81.465 23.2809 81.8488 22.6065C82.2431 21.9321 82.7774 21.4133 83.4518 21.0502C84.1262 20.6767 84.8784 20.4899 85.7084 20.4899C86.5385 20.4899 87.2907 20.6767 87.9651 21.0502C88.6395 21.4133 89.1686 21.9321 89.5525 22.6065C89.9467 23.2809 90.1439 24.059 90.1439 24.9409C90.1439 25.8228 89.9416 26.6009 89.5369 27.2753C89.1427 27.9497 88.6031 28.4737 87.9184 28.8472C87.244 29.2103 86.4866 29.3919 85.6462 29.3919ZM85.6462 27.4932C86.0405 27.4932 86.4088 27.3998 86.7512 27.2131C87.1039 27.016 87.384 26.7255 87.5916 26.3416C87.7991 25.9577 87.9028 25.4908 87.9028 24.9409C87.9028 24.1213 87.6849 23.4936 87.2492 23.0578C86.8238 22.6117 86.2998 22.3886 85.6773 22.3886C85.0548 22.3886 84.5309 22.6117 84.1055 23.0578C83.6905 23.4936 83.4829 24.1213 83.4829 24.9409C83.4829 25.7606 83.6853 26.3934 84.0899 26.8396C84.5049 27.2753 85.0237 27.4932 85.6462 27.4932ZM91.1818 24.9098C91.1818 24.0383 91.353 23.2653 91.6954 22.5909C92.0482 21.9165 92.5254 21.3978 93.1272 21.0346C93.729 20.6715 94.3982 20.4899 95.1348 20.4899C95.6951 20.4899 96.2294 20.6144 96.7378 20.8634C97.2462 21.1021 97.6508 21.4237 97.9517 21.8283V17.7353H100.162V29.2518H97.9517V27.9757C97.682 28.4011 97.3033 28.7434 96.8156 29.0028C96.328 29.2622 95.7625 29.3919 95.1193 29.3919C94.393 29.3919 93.729 29.2051 93.1272 28.8316C92.5254 28.4581 92.0482 27.9342 91.6954 27.2598C91.353 26.575 91.1818 25.7917 91.1818 24.9098ZM97.9673 24.9409C97.9673 24.4118 97.8635 23.9604 97.656 23.5869C97.4485 23.203 97.1684 22.9125 96.8156 22.7154C96.4629 22.5079 96.0842 22.4042 95.6795 22.4042C95.2749 22.4042 94.9014 22.5027 94.559 22.6998C94.2166 22.897 93.9365 23.1875 93.7186 23.5714C93.5111 23.9449 93.4073 24.391 93.4073 24.9098C93.4073 25.4285 93.5111 25.8851 93.7186 26.2793C93.9365 26.6632 94.2166 26.9589 94.559 27.1664C94.9118 27.3739 95.2853 27.4777 95.6795 27.4777C96.0842 27.4777 96.4629 27.3791 96.8156 27.182C97.1684 26.9745 97.4485 26.684 97.656 26.3104C97.8635 25.9266 97.9673 25.47 97.9673 24.9409Z" fill="#171717"/>
<path d="M108.453 23.6803C109.065 23.7944 109.568 24.1005 109.962 24.5985C110.356 25.0965 110.554 25.6672 110.554 26.3104C110.554 26.8915 110.408 27.405 110.118 27.8512C109.838 28.2869 109.428 28.6293 108.888 28.8783C108.349 29.1273 107.711 29.2518 106.974 29.2518H102.29V18.3889H106.772C107.508 18.3889 108.141 18.5082 108.67 18.7469C109.21 18.9855 109.615 19.3175 109.884 19.7429C110.164 20.1683 110.305 20.6507 110.305 21.1902C110.305 21.8231 110.133 22.3523 109.791 22.7777C109.459 23.203 109.013 23.5039 108.453 23.6803ZM104.468 22.871H106.46C106.979 22.871 107.379 22.7569 107.659 22.5287C107.939 22.29 108.079 21.9528 108.079 21.5171C108.079 21.0813 107.939 20.7441 107.659 20.5055C107.379 20.2668 106.979 20.1475 106.46 20.1475H104.468V22.871ZM106.663 27.4777C107.192 27.4777 107.602 27.3532 107.892 27.1042C108.193 26.8551 108.344 26.5024 108.344 26.0459C108.344 25.579 108.188 25.2159 107.877 24.9565C107.565 24.6867 107.145 24.5518 106.616 24.5518H104.468V27.4777H106.663ZM116.118 29.3919C115.288 29.3919 114.541 29.2103 113.877 28.8472C113.213 28.4737 112.689 27.9497 112.306 27.2753C111.932 26.6009 111.745 25.8228 111.745 24.9409C111.745 24.059 111.937 23.2809 112.321 22.6065C112.715 21.9321 113.25 21.4133 113.924 21.0502C114.599 20.6767 115.351 20.4899 116.181 20.4899C117.011 20.4899 117.763 20.6767 118.437 21.0502C119.112 21.4133 119.641 21.9321 120.025 22.6065C120.419 23.2809 120.616 24.059 120.616 24.9409C120.616 25.8228 120.414 26.6009 120.009 27.2753C119.615 27.9497 119.075 28.4737 118.391 28.8472C117.716 29.2103 116.959 29.3919 116.118 29.3919ZM116.118 27.4932C116.513 27.4932 116.881 27.3998 117.223 27.2131C117.576 27.016 117.856 26.7255 118.064 26.3416C118.271 25.9577 118.375 25.4908 118.375 24.9409C118.375 24.1213 118.157 23.4936 117.721 23.0578C117.296 22.6117 116.772 22.3886 116.15 22.3886C115.527 22.3886 115.003 22.6117 114.578 23.0578C114.163 23.4936 113.955 24.1213 113.955 24.9409C113.955 25.7606 114.158 26.3934 114.562 26.8396C114.977 27.2753 115.496 27.4932 116.118 27.4932ZM126.977 29.2518L125.202 26.575L123.631 29.2518H121.296L124.113 24.9253L121.265 20.63H123.724L125.483 23.2912L127.07 20.63H129.404L126.572 24.9253L129.436 29.2518H126.977Z" fill="#FF2626"/>
</svg>
